<svg
    xmlns="http://www.w3.org/2000/svg"
    viewBox="0 0 26 27"
    id="vector">
    <path
        id="path"
        d="M 13 0.898 L 13 0.898 C 16.446 0.898 19.755 2.269 22.192 4.706 C 24.629 7.143 26 10.452 26 13.898 L 26 13.898 C 26 16.18 25.399 18.422 24.258 20.398 C 23.117 22.374 21.476 24.015 19.5 25.156 C 17.524 26.297 15.282 26.898 13 26.898 L 13 26.898 C 9.554 26.898 6.245 25.527 3.808 23.09 C 1.371 20.653 0 17.344 0 13.898 L 0 13.898 C 0 10.452 1.371 7.143 3.808 4.706 C 6.245 2.269 9.554 0.898 13 0.898 Z"
        fill="#007dfe"/>
    <path
        id="path_1"
        d="M 16.181 19.768 L 9.819 19.768 C 9.819 20.191 9.651 20.598 9.353 20.898 C 9.055 21.197 8.65 21.366 8.229 21.366 C 7.807 21.366 7.402 21.197 7.104 20.898 C 6.806 20.598 6.638 20.191 6.638 19.768 L 6.638 8.581 C 6.638 8.157 6.806 7.751 7.104 7.451 C 7.402 7.151 7.807 6.983 8.229 6.983 L 17.771 6.983 C 18.193 6.983 18.597 7.151 18.896 7.451 C 19.194 7.751 19.362 8.157 19.362 8.581 L 19.362 19.768 C 19.362 20.191 19.194 20.598 18.896 20.898 C 18.597 21.197 18.193 21.366 17.771 21.366 C 17.349 21.366 16.945 21.197 16.647 20.898 C 16.348 20.598 16.181 20.191 16.181 19.768 Z M 16.976 16.571 C 17.187 16.571 17.389 16.487 17.538 16.337 C 17.687 16.188 17.771 15.984 17.771 15.772 C 17.771 15.561 17.687 15.357 17.538 15.207 C 17.389 15.057 17.187 14.973 16.976 14.973 C 16.765 14.973 16.563 15.057 16.414 15.207 C 16.264 15.357 16.181 15.561 16.181 15.772 C 16.181 15.984 16.264 16.188 16.414 16.337 C 16.563 16.487 16.765 16.571 16.976 16.571 Z M 9.024 16.571 C 9.235 16.571 9.437 16.487 9.586 16.337 C 9.735 16.188 9.819 15.984 9.819 15.772 C 9.819 15.561 9.735 15.357 9.586 15.207 C 9.437 15.057 9.235 14.973 9.024 14.973 C 8.813 14.973 8.611 15.057 8.462 15.207 C 8.312 15.357 8.229 15.561 8.229 15.772 C 8.229 15.984 8.312 16.188 8.462 16.337 C 8.611 16.487 8.813 16.571 9.024 16.571 Z M 8.229 8.581 L 8.229 13.375 L 17.771 13.375 L 17.771 8.581 L 8.229 8.581 Z"
        fill="#ffffff"/>
</svg>
