<svg
    xmlns="http://www.w3.org/2000/svg"
    viewBox="0 0 33 32"
    id="vector">
    <path
        id="path"
        d="M 16 0 L 17 0 C 21.242 0 25.314 1.687 28.314 4.686 C 31.313 7.686 33 11.758 33 16 L 33 16 C 33 20.242 31.313 24.314 28.314 27.314 C 25.314 30.313 21.242 32 17 32 L 16 32 C 11.758 32 7.686 30.313 4.686 27.314 C 1.687 24.314 0 20.242 0 16 L 0 16 C 0 11.758 1.687 7.686 4.686 4.686 C 7.686 1.687 11.758 0 16 0 Z"
        fill="#ffd600"/>
    <path
        id="path_1"
        d="M 27.06 10.8 L 27.06 20.16 C 27.06 20.899 26.659 21.574 26.004 21.949 L 26.004 23.54 C 26.004 23.966 25.645 24.32 25.212 24.32 L 24.684 24.32 C 24.251 24.32 23.892 23.966 23.892 23.54 L 23.892 22.24 L 16.5 22.24 L 16.5 23.54 C 16.5 23.966 16.141 24.32 15.708 24.32 L 15.18 24.32 C 14.747 24.32 14.388 23.966 14.388 23.54 L 14.388 21.949 C 13.744 21.574 13.332 20.899 13.332 20.16 L 13.332 10.8 C 13.332 7.68 16.5 7.68 20.196 7.68 C 23.892 7.68 27.06 7.68 27.06 10.8 Z M 17.556 19.12 C 17.556 18.548 17.081 18.08 16.5 18.08 C 15.919 18.08 15.444 18.548 15.444 19.12 C 15.444 19.692 15.919 20.16 16.5 20.16 C 17.081 20.16 17.556 19.692 17.556 19.12 Z M 24.948 19.12 C 24.948 18.548 24.473 18.08 23.892 18.08 C 23.311 18.08 22.836 18.548 22.836 19.12 C 22.836 19.692 23.311 20.16 23.892 20.16 C 24.473 20.16 24.948 19.692 24.948 19.12 Z M 24.948 10.8 L 15.444 10.8 L 15.444 14.96 L 24.948 14.96 L 24.948 10.8 Z M 11.22 13.4 C 11.189 11.965 9.985 10.8 8.528 10.852 C 7.827 10.866 7.162 11.153 6.676 11.651 C 6.191 12.148 5.927 12.814 5.94 13.504 C 5.954 14.094 6.171 14.662 6.554 15.115 C 6.938 15.568 7.466 15.88 8.052 16 L 8.052 24.32 L 9.108 24.32 L 9.108 16 C 10.354 15.75 11.22 14.658 11.22 13.4 Z"
        fill="#333333"/>
</svg>
